# xmcd
#
# Track frame offsets:
#	150
#	16949
#	33987
#	52736
#	68277
#	84229
#	104243
#	121572
#	140918
#	158794
#	175033
#	193828
#	210038
#	228577
#	245946
#	263913
#	292191
#
# Disc length: 4091 seconds
#
# Revision: 1
# Processed by: cddbd v1.5.2PL0 Copyright (c) Steve Scherf et al.
# Submitted via: audiograbber 1.83.01
#
DISCID=e80ff911
DTITLE=Various Artist - ESP486-04
DYEAR=2005
DGENRE=KARAOKE
TTITLE0=GRETCHEN WILSON - ALL JACKED UP
TTITLE1=SUGARLAND - SOMETHING MORE
TTITLE2=CARRIE UNDERWOOD - INSIDE YOUR HEAVEN
TTITLE3=JULIE ROBERTS - WAKE UP OLDER
TTITLE4=JULIE ROBERTS - SHE DIDN'T HAVE TIME
TTITLE5=TERRI CLARK - BRING ME DOWN
TTITLE6=SHANIA TWAIN - I AIN'T NO QUITTER
TTITLE7=REBA McENTIRE - MY SISTER
TTITLE8=TRISHA YEARWOOD - TRYING TO LOVE YOU
TTITLE9=TRICK PONY - IT'S A HEARTACHE
TTITLE10=FAITH HILL - MISSISSIPPI GIRL
TTITLE11=SARA EVANS - CHEATIN'
TTITLE12=ALISON KRAUSS and UNION STATION - GOODBYE IS ALL WE HAVE
TTITLE13=LEE ANN WOMACK - HE OUGHTA KNOW THAT BY NOW
TTITLE14=JO DEE MESSINA - DELICIOUS SURPRISE (I BELIEVE IT)
TTITLE15=MARTINA McBRIDE - GOD'S WILL
TTITLE16=ERIKA JO - I BREAK THINGS
EXTD=
EXTT0=
EXTT1=
EXTT2=
EXTT3=
EXTT4=
EXTT5=
EXTT6=
EXTT7=
EXTT8=
EXTT9=
EXTT10=
EXTT11=
EXTT12=
EXTT13=
EXTT14=
EXTT15=
EXTT16=
PLAYORDER=
